<svg width="1200" height="740" viewBox="0 0 1200 740" xmlns="http://www.w3.org/2000/svg">
  <defs>
    <linearGradient id="bg" x1="0" y1="0" x2="1" y2="1">
      <stop offset="0%" stop-color="#e8f3ff"/>
      <stop offset="100%" stop-color="#f5fbff"/>
    </linearGradient>
  </defs>
  <rect width="1200" height="740" fill="url(#bg)"/>
  <rect x="40" y="36" width="1120" height="668" rx="18" fill="#ffffff" stroke="#dbe5f0"/>
  <rect x="72" y="72" width="786" height="612" rx="14" fill="#ffffff" stroke="#e5e7eb"/>
  <rect x="878" y="72" width="250" height="612" rx="14" fill="#ffffff" stroke="#e5e7eb"/>

  <text x="95" y="112" font-size="30" font-family="Segoe UI, Arial" fill="#0f172a" font-weight="700">文章速览 Web</text>
  <text x="95" y="138" font-size="15" font-family="Segoe UI, Arial" fill="#64748b">输入链接后，一键得到摘要、观点和渠道草稿</text>

  <text x="95" y="182" font-size="16" font-family="Segoe UI, Arial" fill="#0f172a" font-weight="600">文章链接</text>
  <rect x="95" y="194" width="740" height="44" rx="8" fill="#ffffff" stroke="#cfd8e3"/>
  <text x="108" y="222" font-size="14" font-family="Consolas, Menlo, monospace" fill="#7b8794">https://example.com/article</text>

  <rect x="95" y="252" width="360" height="40" rx="8" fill="#0f766e"/>
  <text x="231" y="277" text-anchor="middle" font-size="15" font-family="Segoe UI, Arial" fill="#ffffff" font-weight="600">生成结果</text>
  <rect x="475" y="252" width="360" height="40" rx="8" fill="#e2e8f0"/>
  <text x="655" y="277" text-anchor="middle" font-size="15" font-family="Segoe UI, Arial" fill="#334155" font-weight="600">填入示例链接</text>

  <rect x="95" y="314" width="740" height="346" rx="10" fill="#f8fafc" stroke="#e2e8f0"/>
  <text x="112" y="346" font-size="18" font-family="Segoe UI, Arial" fill="#0f172a" font-weight="700">本次结果</text>
  <text x="112" y="374" font-size="14" font-family="Segoe UI, Arial" fill="#334155">摘要：</text>
  <text x="112" y="398" font-size="13" font-family="Segoe UI, Arial" fill="#475569">这篇文章主要讨论了……（示意）</text>
  <text x="112" y="430" font-size="14" font-family="Segoe UI, Arial" fill="#334155">关键观点：</text>
  <text x="112" y="454" font-size="13" font-family="Segoe UI, Arial" fill="#475569">1. ……</text>
  <text x="112" y="478" font-size="13" font-family="Segoe UI, Arial" fill="#475569">2. ……</text>
  <text x="112" y="502" font-size="13" font-family="Segoe UI, Arial" fill="#475569">3. ……</text>

  <text x="900" y="112" font-size="20" font-family="Segoe UI, Arial" fill="#0f172a" font-weight="700">历史记录</text>
  <rect x="900" y="130" width="206" height="32" rx="8" fill="#f1f5f9" stroke="#cbd5e1"/>
  <text x="1003" y="151" text-anchor="middle" font-size="13" font-family="Segoe UI, Arial" fill="#334155">搜索标题/链接</text>

  <rect x="900" y="180" width="206" height="116" rx="10" fill="#fcfcfd" stroke="#e5e7eb"/>
  <text x="912" y="205" font-size="13" font-family="Segoe UI, Arial" fill="#0f172a" font-weight="600">示例文章标题</text>
  <text x="912" y="227" font-size="12" font-family="Segoe UI, Arial" fill="#64748b">2026-03-09 · 小红书</text>
  <text x="912" y="248" font-size="12" font-family="Segoe UI, Arial" fill="#64748b">摘要预览……</text>

  <rect x="900" y="312" width="206" height="116" rx="10" fill="#fcfcfd" stroke="#e5e7eb"/>
  <text x="912" y="337" font-size="13" font-family="Segoe UI, Arial" fill="#0f172a" font-weight="600">示例文章标题</text>
  <text x="912" y="359" font-size="12" font-family="Segoe UI, Arial" fill="#64748b">2026-03-08 · 推文</text>
  <text x="912" y="380" font-size="12" font-family="Segoe UI, Arial" fill="#64748b">摘要预览……</text>

  <text x="95" y="698" font-size="12" font-family="Segoe UI, Arial" fill="#64748b">Preview mockup for README showcase</text>
</svg>
